<?xml version="1.0" encoding="UTF-8" standalone="no"?>
<!-- Created with Inkscape (http://www.inkscape.org/) -->

<svg
   width="132.2919mm"
   height="185.85318mm"
   viewBox="0 0 132.29191 185.85318"
   version="1.1"
   id="svg1"
   xmlns="http://www.w3.org/2000/svg"
   xmlns:svg="http://www.w3.org/2000/svg">
  <defs id="defs1" />
  <g
     id="layer1"
     transform="translate(-26.505202,-44.483812)">
    <path
       id="path1"
       d="m 98.488587,112.94643 c 0,3.15009 -2.554408,5.70582 -5.704588,5.70582 -3.151927,0 -5.706348,-2.55573 -5.706348,-5.70582 0,-3.15022 2.554421,-5.70633 5.706348,-5.70633 3.15018,0 5.704588,2.55611 5.704588,5.70633 M 92.370933,84.418654 c 0,8.088098 -3.090731,15.45719 -8.15322,20.985956 -1.770701,2.01292 -2.84465,4.65254 -2.84465,7.54182 0,6.30204 5.108829,11.41041 11.410936,11.41041 6.30036,0 11.410491,-5.10837 11.410491,-11.41041 0,-2.88928 -1.07572,-5.5289 -2.84596,-7.54182 -5.062493,-5.528766 -8.153225,-12.897858 -8.153225,-20.985956 0,-8.088097 3.088985,-15.452357 8.151475,-20.98435 1.772,-2.011059 2.84771,-4.649435 2.84771,-7.541688 0,-6.30031 -5.110131,-11.408804 -11.410491,-11.408804 -6.302107,0 -11.410936,5.108494 -11.410936,11.408804 0,2.892253 1.073986,5.530629 2.848144,7.541688 5.060742,5.531993 8.149726,12.896253 8.149726,20.98435"
       style="fill:#000000;fill-opacity:1;fill-rule:nonzero;stroke:none;stroke-width:0.4371" />
    <path
       id="path2"
       d="m 145.23075,107.19067 c -4.1813,0 -7.0124,4.10959 -7.07359,11.07092 -0.13852,15.17519 -4.93967,26.6307 -14.27088,34.04564 -9.74427,7.74154 -22.24751,9.42872 -31.104028,9.45932 -18.117361,0 -31.174154,-6.13824 -35.601494,-9.45932 -8.368055,-6.27454 -20.712731,-15.81552 -20.842507,-34.0392 0.0285,-2.91938 0.582217,-7.87957 3.909999,-7.87957 3.338004,0 3.674386,4.5948 3.676096,7.88837 0,13.76344 5.85985,24.20445 17.41398,31.03233 11.035288,6.52074 24.714764,8.13927 31.443926,8.13927 15.902998,0 25.491668,-6.23873 30.665178,-11.45861 6.03417,-6.09364 9.86229,-14.43611 9.63675,-22.34851"
       style="fill:#000000;fill-opacity:1;fill-rule:nonzero;stroke:none;stroke-width:0.4371" />
    <path
       id="path3"
       d="m 158.79615,211.96993 c 0,-0.19329 -0.15513,-0.34693 -0.34842,-0.34693 h -9.04923 -9.39766 v 0.44605 c 0,0.14992 0.0942,0.28002 0.2291,0.3271 l 6.43673,2.34262 v 10.86612 c 0,0.64429 -0.43713,1.1845 -1.03112,1.34545 -1.43587,0.4064 -2.94693,0.63562 -4.51088,0.63562 -3.18951,0 -6.17096,-0.89333 -8.70965,-2.44162 -0.80598,-0.48817 -1.52635,-1.08786 -2.1514,-1.78593 -2.98277,-3.33124 -4.7963,-7.73126 -4.7963,-12.55477 0,-0.31967 0.0211,-1.13495 0.0359,-1.46156 0.13332,-4.38292 1.9499,-8.34073 4.8234,-11.25008 1.58448,-1.6085 3.59601,-2.79338 5.85495,-3.36544 h -0.005 c 0.92407,-0.26143 1.65136,-0.42127 2.90103,-0.42127 2.57671,0 5.27754,0.6381 7.55002,1.79275 l 2.00148,5.49618 c 0.0545,0.12638 0.17396,0.21311 0.31905,0.21311 h 0.45064 v -9.39774 c -2.6261,-0.48198 -5.33569,-0.73226 -8.09991,-0.73226 -0.7444,0 -1.47871,0.0248 -2.2126,0.0496 -6.88782,0.32958 -12.95608,3.79389 -16.82529,8.98093 -1.67496,2.32553 -2.78301,5.09499 -3.08155,8.09839 -0.052,0.57242 -0.0768,1.14733 -0.0768,1.73128 0,10.49205 8.27255,19.04974 18.64843,19.51066 1.04165,0.0743 2.08977,0.1239 3.15018,0.1239 2.83415,0 5.57128,-0.062 8.2896,-0.77315 1.01934,-0.27011 2.00105,-0.60217 2.93994,-1.00237 v -11.70778 c 0,-1.17459 0.72557,-2.1787 1.75189,-2.59018 l 0.10284,-0.0372 c 0.0409,-0.0124 0.0843,-0.0248 0.12675,-0.0496 v -0.002 l 4.68484,-1.70402 v -0.34445"
       style="fill:#000000;fill-opacity:1;fill-rule:nonzero;stroke:none;stroke-width:0.4371" />
    <path
       id="path4"
       d="m 117.91899,228.69749 -4.46148,-1.62213 c -1.14262,-0.34693 -1.96869,-1.40691 -1.97569,-2.66006 v -27.87543 c 0,-0.62942 0.41829,-1.16096 0.99047,-1.3369 l 5.67355,-2.06595 v -0.34321 c 0,-0.19081 -0.15339,-0.34817 -0.34655,-0.34817 h -9.04754 -9.397643 v 0.44853 c 0,0.14992 0.09417,0.2763 0.227237,0.32834 l 6.436736,2.34089 v 30.79333 l -6.664023,2.42452 v 0.34321 c 0,0.19328 0.155622,0.3494 0.348414,0.3494 h 9.049279 9.39416 l 0.003,-0.44853 c 0,-0.14868 -0.0954,-0.27878 -0.23033,-0.32834"
       style="fill:#000000;fill-opacity:1;fill-rule:nonzero;stroke:none;stroke-width:0.4371" />
    <path
       id="path5"
       d="m 47.05573,209.59831 0.0017,0.005 c -1.521285,0.60589 -3.1775,0.93918 -4.91222,0.93918 -1.208915,0 -2.400645,-0.16107 -3.510488,-0.46339 v -14.64786 c 1.25155,-0.48818 2.637992,-0.75457 4.063675,-0.75457 1.545198,0 3.018707,0.31472 4.359033,0.88219 2.77799,1.11636 4.739823,3.84679 4.739823,7.026 0,3.1776 -1.961833,5.89751 -4.741533,7.01251 m 3.783668,-16.22403 c -2.125743,-0.60588 -4.35907,-0.92926 -6.679451,-0.92926 l -8.257089,0.005 h -9.397646 v 0.44728 c 0,0.1524 0.0954,0.28002 0.228848,0.32835 l 6.436975,2.34249 v 30.63114 l -6.665773,2.42626 v 0.34321 c 0,0.19329 0.157108,0.3494 0.348289,0.3494 h 9.049332 9.395949 l 0.0017,-0.44728 c 0,-0.1524 -0.0954,-0.28002 -0.228848,-0.32959 l -4.690298,-1.70576 c -1.024425,-0.41259 -1.746701,-1.41719 -1.746701,-2.58671 v -11.67532 c 1.319832,0.22055 2.673837,0.33578 4.05686,0.33578 2.443305,0 4.830259,-0.37047 7.055062,-1.03954 1.912309,-0.59473 3.623115,-1.64766 5.00444,-3.03065 1.678382,-1.67838 2.725059,-4.00899 2.725059,-6.57017 0,-4.20711 -2.798495,-7.76026 -6.636755,-8.8957"
       style="fill:#000000;fill-opacity:1;fill-rule:nonzero;stroke:none;stroke-width:0.4371" />
    <path
       id="path6"
       d="M 97.853042,192.44725 H 81.44344 l -0.0035,0.44729 c 0,0.14992 0.0954,0.27878 0.230335,0.32587 l 6.437173,2.34262 v 22.34157 c 0,5.12225 -4.152451,9.27645 -9.276581,9.27645 -5.125865,0 -9.225212,-3.24748 -9.225212,-10.10796 v -20.53173 c 0,-0.62818 0.41656,-1.16096 0.990228,-1.33517 l 5.446698,-1.98578 c 0.135053,-0.0496 0.228599,-0.17595 0.228599,-0.32587 l -0.0013,-0.44729 h -9.396122 -9.047622 c -0.192916,0 -0.350025,0.15488 -0.350025,0.34693 v 0.34321 l 6.665773,2.42626 v 21.51006 c 0,7.31805 5.933287,13.25136 13.253091,13.25136 0.09169,0 0.612821,0.0124 0.70327,0.0119 7.319668,0 13.437321,-5.93332 13.437321,-13.25136 v -19.58748 c 0.0087,-1.16468 0.956403,-2.2435 1.977445,-2.65163 l 4.688328,-1.70911 v -0.34321 c 0,-0.19081 -0.155125,-0.34693 -0.348413,-0.34693"
       style="fill:#000000;fill-opacity:1;fill-rule:nonzero;stroke:none;stroke-width:0.4371" />
  </g>
</svg>
